<svg width="19px" height="15px" viewBox="0 0 190 150" version="1.1" xmlns="http://www.w3.org/2000/svg">
<g id="#fbb040ff">
<path fill="#fbb040" opacity="1.00" d=" M 150.37 0.00 L 152.23 0.00 C 154.39 0.39 156.41 1.37 158.01 2.90 C 167.29 11.33 176.55 19.79 185.85 28.19 C 187.87 29.90 189.42 32.13 190.00 34.75 L 190.00 37.02 C 189.55 39.77 187.88 42.04 185.82 43.83 C 176.36 52.36 166.99 61.01 157.51 69.51 C 154.27 72.70 148.65 72.81 145.39 69.62 C 141.83 66.47 141.51 60.40 144.87 56.99 C 149.03 52.82 153.58 49.05 157.87 45.01 C 108.23 44.97 58.58 45.04 8.93 44.97 C 4.45 45.12 0.68 41.43 0.00 37.13 L 0.00 34.95 C 0.63 30.61 4.43 26.91 8.93 27.03 C 58.57 26.96 108.22 27.03 157.87 27.00 C 153.34 22.61 148.24 18.76 144.07 14.02 C 140.15 8.80 143.98 0.70 150.37 0.00 Z" />
<path fill="#fbb040" opacity="1.00" d=" M 32.53 80.45 C 35.42 77.69 40.13 77.18 43.44 79.48 C 47.98 82.24 48.90 89.26 45.11 93.03 C 40.96 97.20 36.41 100.96 32.13 105.00 C 81.80 105.03 131.47 104.95 181.13 105.03 C 185.57 104.93 189.27 108.56 190.00 112.81 L 190.00 115.06 C 189.36 119.36 185.63 123.07 181.17 122.97 C 131.49 123.05 81.80 122.97 32.12 123.01 C 36.55 127.22 41.36 131.04 45.55 135.49 C 50.04 140.61 46.26 149.42 39.54 150.00 L 37.74 150.00 C 35.56 149.61 33.56 148.59 31.96 147.07 C 23.03 138.98 14.16 130.83 5.20 122.77 C 2.86 120.75 0.61 118.40 0.00 115.25 L 0.00 113.00 C 0.44 110.25 2.08 107.95 4.16 106.19 C 13.65 97.64 23.03 88.97 32.53 80.45 Z" />
</g>
</svg>