<svg width="19px" height="15px" viewBox="0 0 190 150" version="1.1" xmlns="http://www.w3.org/2000/svg">
<g id="#3bb54aff">
<path fill="#3bb54a" opacity="1.00" d=" M 150.30 0.00 L 152.40 0.00 C 154.75 0.49 156.84 1.72 158.56 3.38 C 166.58 10.71 174.62 18.02 182.67 25.32 C 185.59 27.97 189.07 30.51 190.00 34.59 L 190.00 37.16 C 189.46 39.83 187.85 42.07 185.83 43.82 C 176.38 52.34 167.03 60.98 157.55 69.47 C 154.65 72.30 149.88 72.84 146.52 70.51 C 142.02 67.71 141.11 60.73 144.90 56.96 C 149.04 52.79 153.59 49.04 157.87 45.01 C 108.22 44.96 58.57 45.05 8.93 44.97 C 4.48 45.12 0.80 41.50 0.00 37.27 L 0.00 34.85 C 0.60 32.50 1.63 30.09 3.72 28.70 C 6.65 26.48 10.52 27.07 13.95 26.98 C 61.92 27.03 109.90 26.99 157.87 26.99 C 153.35 22.60 148.24 18.78 144.08 14.03 C 140.16 8.83 143.95 0.76 150.30 0.00 Z" />
<path fill="#3bb54a" opacity="1.00" d=" M 32.00 80.89 C 34.29 78.72 37.59 77.35 40.75 78.28 C 45.00 79.28 48.00 83.67 47.45 88.00 C 47.24 90.69 45.48 92.87 43.55 94.61 C 39.76 98.09 35.91 101.51 32.13 104.99 C 81.77 105.03 131.41 104.95 181.04 105.04 C 185.48 104.89 189.16 108.46 190.00 112.67 L 190.00 115.17 C 189.31 118.57 186.98 121.80 183.48 122.65 C 180.35 123.27 177.13 122.95 173.97 123.01 C 126.69 123.00 79.41 122.99 32.12 123.01 C 36.65 127.40 41.77 131.23 45.92 135.98 C 49.75 141.09 46.21 148.90 40.08 150.00 L 37.55 150.00 C 33.71 149.27 31.06 146.24 28.30 143.75 C 21.32 137.39 14.35 131.04 7.35 124.71 C 4.43 122.04 0.95 119.49 0.00 115.41 L 0.00 112.84 C 0.57 109.64 2.83 107.25 5.21 105.22 C 14.18 97.16 23.06 88.99 32.00 80.89 Z" />
</g>
</svg>