<svg width="23px" height="18px" viewBox="0 0 230 180" version="1.1" xmlns="http://www.w3.org/2000/svg">
<g id="#3bb54aff">
<path fill="#3bb54a" opacity="1.00" d=" M 119.61 0.00 L 124.52 0.00 C 138.71 0.83 151.31 11.89 154.04 25.83 C 157.21 26.93 160.36 28.11 163.43 29.47 C 177.20 17.98 196.28 17.34 213.36 17.61 C 208.44 31.37 203.11 44.98 197.86 58.62 C 200.96 63.45 203.47 68.63 205.34 74.06 C 210.47 74.18 215.62 73.83 220.75 74.23 C 225.49 74.76 229.30 78.78 230.00 83.44 L 230.00 114.08 C 229.31 119.00 225.08 123.26 220.02 123.40 C 213.58 123.61 207.14 123.37 200.70 123.48 C 197.03 130.09 192.31 136.08 186.90 141.35 C 186.80 150.88 187.00 160.41 186.82 169.94 C 186.72 175.09 182.30 179.26 177.36 180.00 L 153.64 180.00 C 150.51 179.53 147.41 178.07 145.64 175.36 C 143.13 171.96 143.85 167.51 143.75 163.55 C 129.59 166.60 114.84 166.60 100.67 163.59 C 100.55 167.41 101.22 171.64 98.97 175.00 C 97.23 177.93 93.97 179.55 90.68 180.00 L 67.29 180.00 C 62.23 179.45 57.67 175.21 57.58 169.98 C 57.43 160.43 57.59 150.87 57.53 141.31 C 46.52 130.78 38.60 116.83 36.50 101.63 C 31.11 100.47 25.89 98.66 20.91 96.30 C 14.64 100.20 7.37 102.20 0.00 102.37 L 0.00 88.29 C 2.58 87.98 5.15 87.59 7.71 87.11 C 3.80 82.78 0.66 77.57 0.00 71.67 L 0.00 69.27 C 0.67 61.37 6.98 54.36 14.86 53.18 C 23.29 51.53 32.40 56.80 35.02 65.00 C 37.33 71.97 34.91 79.40 31.51 85.58 C 33.08 86.09 34.65 86.60 36.22 87.11 C 37.58 75.28 42.25 63.91 49.47 54.46 C 59.66 40.92 74.45 31.42 90.34 25.92 C 92.98 12.00 105.50 0.98 119.61 0.00 M 175.24 38.21 C 171.94 40.10 171.09 44.93 166.98 45.61 C 161.78 46.64 158.02 41.85 153.33 40.50 C 152.16 43.86 150.57 47.07 148.61 50.04 C 151.65 51.10 154.66 52.24 157.64 53.46 C 155.76 57.78 153.92 62.12 152.04 66.45 C 147.76 64.81 143.51 63.04 139.05 61.95 C 123.54 58.08 106.87 59.88 92.33 66.43 C 90.47 62.11 88.61 57.77 86.74 53.45 C 89.71 52.24 92.71 51.10 95.74 50.04 C 93.80 47.13 92.28 43.97 91.13 40.67 C 81.38 44.62 72.24 50.33 65.06 58.07 C 55.92 67.67 50.07 80.70 50.34 94.08 C 50.45 108.24 57.37 121.78 67.66 131.30 C 69.55 133.09 71.93 135.02 71.76 137.92 C 72.03 147.23 71.81 156.55 71.88 165.86 C 76.67 165.87 81.45 165.87 86.24 165.87 C 86.24 163.68 86.24 161.50 86.22 159.33 C 83.87 158.30 81.05 157.43 79.87 154.91 C 77.94 151.51 79.62 146.82 83.17 145.29 C 85.39 144.11 87.96 144.67 90.15 145.59 C 106.65 152.32 125.29 153.45 142.57 149.28 C 145.07 148.97 145.85 145.98 148.16 145.23 C 152.28 143.32 157.73 146.39 158.03 150.96 C 158.27 155.92 158.03 160.90 158.12 165.87 C 162.93 165.87 167.73 165.88 172.54 165.85 C 172.49 159.57 172.59 153.28 172.48 147.00 C 170.76 145.40 169.10 143.41 169.25 140.91 C 169.17 138.06 171.24 135.89 173.34 134.29 C 180.22 128.71 185.83 121.60 189.64 113.60 C 190.73 111.16 193.22 109.41 195.92 109.44 C 202.49 109.33 209.06 109.44 215.63 109.41 C 215.67 102.34 215.64 95.27 215.65 88.20 C 210.43 88.15 205.20 88.28 199.98 88.17 C 196.83 88.29 193.71 86.13 192.96 83.02 C 191.77 78.77 190.37 74.56 188.29 70.65 C 183.69 70.37 179.64 65.70 181.51 61.11 C 185.12 51.57 188.93 42.10 192.53 32.55 C 186.56 33.61 180.42 34.91 175.24 38.21 M 14.44 69.95 C 14.31 73.02 16.47 75.46 18.43 77.55 C 20.19 75.19 22.46 72.15 21.18 69.06 C 19.93 65.97 14.86 66.62 14.44 69.95 Z" />
</g>
</svg>
