<svg width="18px" height="18px" viewBox="0 0 180 180" version="1.1" xmlns="http://www.w3.org/2000/svg">
<g id="#fbb040ff">
<path fill="#fbb040" opacity="1.00" d=" M 88.71 0.00 L 90.36 0.00 C 96.62 0.09 101.91 5.70 101.74 11.93 C 101.80 34.04 101.74 56.15 101.76 78.26 C 123.87 78.28 145.98 78.24 168.08 78.28 C 174.02 78.05 179.30 82.88 180.00 88.72 L 180.00 91.08 C 179.46 97.00 174.07 101.91 168.10 101.72 C 145.99 101.75 123.88 101.72 101.76 101.74 C 101.74 123.83 101.81 145.93 101.74 168.02 C 101.94 173.97 97.17 179.30 91.29 180.00 L 88.95 180.00 C 82.99 179.47 78.09 174.08 78.27 168.08 C 78.19 145.96 78.26 123.85 78.24 101.74 C 56.14 101.72 34.04 101.75 11.95 101.72 C 6.02 101.93 0.70 97.14 0.00 91.30 L 0.00 88.95 C 0.53 82.99 5.94 78.03 11.96 78.28 C 34.05 78.24 56.14 78.28 78.24 78.26 C 78.23 56.83 78.26 35.40 78.22 13.96 C 78.19 11.21 78.38 8.33 79.84 5.92 C 81.60 2.60 85.09 0.61 88.71 0.00 Z" />
</g>
</svg>